<?xml version="1.0" standalone="no"?>
<!DOCTYPE svg PUBLIC "-//W3C//DTD SVG 20010904//EN"
 "http://www.w3.org/TR/2001/REC-SVG-20010904/DTD/svg10.dtd">
<svg version="1.0" xmlns="http://www.w3.org/2000/svg"
 width="513.000000pt" height="512.000000pt" viewBox="0 0 513.000000 512.000000"
 preserveAspectRatio="xMidYMid meet">

<g transform="translate(0.000000,512.000000) scale(0.100000,-0.100000)"
fill="#a1a6b4" stroke="none">
<path d="M3865 4517 c-27 -15 -65 -58 -120 -134 -80 -111 -157 -202 -269 -321
l-59 -62 -51 28 c-61 34 -128 54 -150 46 -9 -3 -16 -1 -16 4 0 6 12 12 26 14
l26 3 -20 25 c-17 21 -23 23 -45 13 -14 -7 -44 -37 -67 -68 -49 -66 -124 -127
-234 -190 -136 -77 -201 -84 -213 -25 -3 16 -12 35 -19 41 -19 15 -104 12
-179 -6 l-60 -15 -30 37 c-80 98 -119 130 -185 151 -71 24 -187 25 -228 3 -12
-7 -27 -9 -32 -6 -6 3 -10 2 -10 -4 0 -6 -6 -8 -14 -5 -10 4 -22 -8 -36 -36
-12 -23 -41 -69 -66 -102 -24 -33 -44 -69 -44 -79 0 -17 -9 -19 -108 -19 -99
0 -111 2 -128 21 -58 66 -194 88 -298 49 -59 -22 -123 -83 -143 -135 -15 -39
-43 -212 -40 -246 2 -24 6 -26 32 -23 22 2 26 1 15 -6 -13 -8 -12 -11 5 -24
11 -9 23 -16 27 -16 9 0 35 27 41 42 2 7 8 10 12 6 8 -7 -21 -125 -34 -140 -3
-4 -15 0 -26 8 -19 14 -19 16 -2 25 24 14 22 33 -2 19 -11 -5 -25 -26 -32 -44
-7 -19 -16 -33 -21 -30 -14 9 -8 -39 12 -101 13 -41 19 -50 17 -27 -2 17 0 32
5 32 4 0 8 -9 8 -19 0 -15 13 -24 55 -37 56 -18 69 -31 55 -55 -7 -11 -15 -12
-40 -2 -17 7 -37 10 -44 7 -7 -3 -18 5 -24 18 -12 22 -12 22 -7 -4 6 -33 2
-36 -159 -126 -66 -37 -135 -82 -154 -101 -40 -39 -90 -146 -99 -208 -5 -41
-48 -118 -123 -222 -18 -24 -41 -69 -51 -99 -22 -65 -22 -65 -7 -55 7 4 34 9
61 11 58 4 165 -34 235 -84 26 -19 52 -36 57 -38 69 -24 116 -36 144 -36 l33
0 -35 -39 c-19 -22 -40 -48 -46 -60 -6 -11 -22 -32 -36 -47 -13 -14 -29 -41
-35 -58 -14 -44 -55 -56 -152 -46 -40 4 -81 11 -90 15 -10 4 -18 5 -18 3 0 -2
-9 -66 -20 -143 -10 -76 -18 -141 -15 -143 2 -2 15 4 29 13 16 11 23 23 19 33
-4 14 -3 14 5 3 13 -18 46 5 123 85 l55 59 1 -35 c1 -50 19 -144 32 -168 9
-17 4 -26 -39 -66 -27 -26 -59 -46 -72 -47 -13 0 -32 -5 -43 -10 -19 -9 -18
-9 3 -5 22 4 30 -8 12 -19 -6 -4 -8 -10 -5 -15 3 -5 0 -12 -6 -16 -8 -4 -9 -3
-5 4 11 18 -6 14 -34 -8 -14 -11 -32 -20 -40 -21 -8 0 -2 -5 14 -10 17 -4 32
-6 35 -4 2 3 -2 5 -9 5 -8 0 10 12 39 27 30 14 61 38 69 52 8 14 31 40 51 56
l36 30 -18 -27 c-23 -36 -22 -41 9 -34 42 11 19 -10 -61 -54 -41 -23 -75 -43
-75 -46 0 -3 51 23 114 56 115 61 136 69 136 49 0 -5 -35 -26 -77 -45 -43 -20
-105 -48 -138 -64 -68 -32 -118 -43 -112 -26 3 7 -9 12 -29 13 -34 2 -49 -19
-21 -30 9 -4 8 -8 -3 -16 -8 -6 -11 -11 -6 -11 5 0 3 -7 -5 -16 -7 -8 -22 -14
-33 -12 -18 4 -21 -1 -23 -34 0 -22 -9 -81 -19 -133 -21 -111 -11 -159 42
-203 l31 -27 7 -130 c3 -71 9 -156 12 -187 l7 -58 1504 0 c1462 0 1504 1 1498
19 -7 22 10 36 47 43 21 4 37 -3 68 -30 l41 -35 246 5 c164 4 247 9 252 16 5
8 18 9 41 3 19 -5 59 -12 88 -15 l52 -5 0 49 c0 33 -4 50 -12 51 -60 5 -89 9
-128 19 -25 6 -54 13 -65 15 -11 2 -22 4 -25 6 -10 4 -25 7 -55 8 l-30 2 25
11 c16 6 62 7 125 3 170 -13 160 -14 163 22 4 37 11 34 -138 57 -156 25 -249
36 -295 36 -24 0 -68 5 -96 11 l-53 11 28 15 c45 23 284 14 327 -12 5 -4 6 1
3 9 -4 9 -1 16 6 16 7 0 28 11 46 25 18 14 43 25 55 25 18 0 20 3 11 12 -9 9
-57 13 -157 13 -89 0 -136 3 -123 8 13 5 37 16 53 25 152 81 159 83 218 80 67
-4 79 15 20 31 -79 22 -139 7 -307 -75 -58 -28 -81 -31 -72 -9 4 10 -1 15 -14
15 -11 0 -20 -4 -20 -9 0 -5 -9 -13 -20 -16 -11 -3 -27 -13 -35 -21 -10 -10
-15 -11 -15 -4 0 7 12 23 28 36 15 13 51 44 80 69 29 25 57 45 62 45 6 0 10 6
10 14 0 8 12 17 28 21 51 12 93 38 107 64 12 23 14 24 20 9 4 -10 11 -18 17
-18 5 0 6 4 3 10 -3 5 -2 10 3 10 4 0 14 34 20 75 15 94 36 137 102 200 117
112 158 185 106 185 -18 0 -34 -13 -56 -44 -63 -87 -113 -87 -118 0 -5 87 58
160 248 282 141 91 159 116 122 162 -27 33 -63 20 -107 -38 -35 -46 -127 -130
-351 -318 -152 -127 -159 -139 -159 -284 0 -105 -2 -116 -20 -124 -14 -6 -16
-10 -7 -13 8 -3 19 0 25 6 13 13 67 15 67 2 0 -10 -37 -26 -100 -41 -25 -7
-58 -24 -75 -39 -16 -15 -46 -37 -67 -49 l-36 -20 -6 24 c-4 13 -11 24 -16 24
-24 0 -7 20 27 31 49 16 130 66 137 84 3 8 12 15 21 15 8 0 15 5 15 11 0 5 -4
8 -9 5 -8 -5 -30 15 -45 42 -5 9 -3 12 5 10 14 -3 19 3 19 23 0 5 -15 -1 -32
-15 -34 -25 -128 -66 -152 -66 -8 0 -14 6 -13 13 1 35 -6 46 -39 62 -35 16
-36 16 -50 -4 -9 -12 -21 -21 -28 -21 -8 0 -16 -8 -19 -19 -4 -16 -12 -18 -66
-15 -108 6 -51 -22 62 -31 27 -2 52 -7 55 -10 9 -9 -190 -1 -205 8 -8 5 -6 18
8 47 10 21 19 44 19 49 0 7 24 8 65 4 77 -7 81 1 24 50 -35 31 -39 38 -29 56
12 23 25 27 35 11 16 -25 151 -80 199 -80 l29 0 -23 -25 c-13 -14 -19 -25 -13
-25 15 0 45 48 41 67 -2 13 -14 17 -46 16 -25 0 -46 5 -48 12 -3 6 -17 12 -32
12 -15 0 -44 10 -65 23 l-38 23 33 35 c18 19 28 32 21 28 -7 -4 -20 5 -30 20
-10 14 -33 40 -52 57 -19 18 -49 46 -68 64 -30 28 -32 33 -17 41 30 17 6 34
-37 27 -25 -4 -39 -3 -39 4 0 6 12 11 27 11 32 0 133 40 133 52 0 14 -52 8
-110 -11 -30 -10 -59 -16 -65 -13 -5 3 13 11 40 18 53 12 107 32 90 33 -5 0
-28 -6 -50 -14 -71 -25 -81 -21 -110 43 -21 44 -35 107 -61 287 -73 494 -99
607 -152 666 -33 37 -131 72 -261 94 -53 9 -99 19 -103 21 -5 3 -8 15 -8 27 0
12 -4 29 -9 36 -6 10 -8 0 -4 -27 l6 -42 -55 0 c-121 0 -288 134 -288 232 0
22 14 71 31 111 30 70 49 185 29 172 -6 -4 -7 1 -3 11 5 15 24 16 182 11 234
-8 227 -5 236 -75 4 -31 13 -65 21 -76 8 -11 14 -31 14 -44 0 -25 -36 -103
-54 -114 -7 -5 -4 -8 7 -8 16 0 19 -5 21 -40 1 -20 96 -81 116 -75 8 3 29 -4
45 -15 17 -11 37 -20 45 -20 8 0 0 8 -18 17 -31 15 -32 17 -16 34 10 11 20 19
23 19 12 0 53 -69 46 -80 -8 -13 17 -9 27 5 4 6 8 0 8 -12 0 -34 15 -28 17 6
1 17 -4 31 -11 34 -8 3 -18 19 -24 36 -11 30 -10 31 17 31 15 0 50 11 76 25
27 13 50 23 51 22 2 -1 -7 -30 -19 -64 -20 -58 -21 -65 -7 -105 8 -24 20 -42
25 -41 6 1 18 -5 27 -14 16 -14 20 -14 43 1 14 9 25 23 25 32 0 8 7 17 15 20
8 4 15 10 15 15 0 6 -9 5 -20 -1 -42 -23 -56 22 -17 57 12 11 37 29 56 39 42
23 75 53 67 62 -3 3 -16 -4 -29 -16 -13 -12 -26 -22 -30 -22 -4 0 -16 -9 -27
-20 -14 -14 -28 -18 -44 -14 -19 4 -27 0 -42 -25 -10 -17 -22 -31 -26 -31 -13
0 -9 17 8 31 9 7 14 22 11 35 -3 16 4 29 25 44 23 17 26 24 18 40 -8 15 -4 23
21 43 25 20 38 23 59 17 23 -7 32 -4 49 16 12 13 21 26 21 29 0 11 -28 4 -40
-10 -7 -9 -15 -13 -18 -10 -3 3 12 23 33 45 22 22 34 40 28 40 -7 0 -14 -4
-18 -9 -3 -5 -29 -17 -58 -25 -34 -10 -64 -28 -87 -51 -38 -40 -88 -70 -98
-60 -3 3 5 16 20 28 41 35 63 129 38 167 -8 12 -10 9 -10 -12 0 -30 -14 -38
-24 -13 -3 8 -13 15 -22 15 -24 0 -85 40 -78 51 7 12 44 12 44 -1 0 -18 30
-11 31 8 0 11 4 7 11 -10 5 -16 14 -28 19 -28 12 0 11 24 -2 37 -16 16 8 28
26 13 19 -16 19 -6 -1 36 -9 19 -21 34 -27 34 -7 0 -7 -4 1 -12 20 -20 14 -35
-12 -33 -14 2 -29 6 -35 9 -12 8 -3 131 11 160 7 13 7 16 -1 11 -13 -8 -87 33
-115 64 -19 21 -19 21 0 22 10 1 22 1 25 1 4 -1 3 15 -1 34 -6 27 -5 37 6 41
11 4 12 9 3 19 -13 16 -4 64 12 64 6 0 19 -5 29 -10 17 -9 18 -8 13 7 -6 16
-5 17 11 3 12 -9 37 -14 69 -12 46 2 55 -2 85 -31 72 -69 91 -154 63 -278 -6
-24 -11 -59 -11 -77 0 -18 -11 -60 -25 -93 -14 -37 -19 -59 -12 -56 35 11 79
172 79 288 0 80 -3 94 -32 146 l-31 58 83 80 c46 44 162 151 259 237 170 151
205 193 197 235 -5 28 -64 28 -113 0z m-775 -537 c-11 -21 -20 -47 -21 -57 0
-10 -14 -45 -30 -78 -16 -33 -26 -49 -22 -35 4 14 8 45 9 70 1 25 3 51 3 59 1
11 68 81 78 81 2 0 -6 -18 -17 -40z m-793 -55 c19 -20 35 -51 38 -73 4 -20 17
-86 30 -147 31 -144 37 -193 26 -199 -4 -3 -11 -34 -14 -68 -3 -34 -9 -64 -14
-65 -29 -11 -36 -22 -24 -36 16 -20 -1 -31 -35 -23 -17 5 -23 3 -19 -4 12 -20
-26 -43 -69 -43 -50 0 -66 8 -66 33 0 11 -10 22 -22 26 l-23 7 23 10 c30 14
28 33 -5 52 -27 15 -26 16 37 10 36 -4 70 -11 77 -17 10 -8 13 -6 13 5 0 15
-49 57 -67 57 -4 0 -1 -5 7 -10 11 -7 -5 -10 -52 -10 l-68 0 0 30 c0 17 5 30
10 30 6 0 10 -11 10 -25 0 -27 17 -34 26 -10 5 11 10 12 24 2 29 -18 38 2 11
24 -17 14 -26 16 -31 9 -5 -8 -9 -7 -13 4 -16 41 66 43 111 2 17 -16 32 -27
32 -23 0 13 -62 97 -83 112 -31 22 -41 18 -17 -7 25 -28 26 -42 1 -28 -11 5
-31 10 -45 10 -32 0 -35 6 -42 78 -11 98 -2 104 59 45 59 -58 104 -86 94 -59
-4 9 -2 16 4 16 6 0 9 6 6 14 -9 22 22 28 56 11 17 -8 32 -13 35 -11 2 3 4 21
5 40 1 43 -18 65 -64 75 -37 8 -150 -14 -160 -30 -3 -6 -11 -3 -19 6 -11 14
-14 14 -24 0 -10 -13 -15 -12 -47 9 -33 23 -49 56 -26 56 6 0 7 3 4 7 -4 3 -2
12 4 20 6 7 8 13 3 13 -5 1 2 7 16 15 l25 14 -24 1 -24 0 26 20 c42 33 147 66
202 63 42 -2 54 -8 82 -38z m-445 -197 c-10 -65 -8 -83 8 -58 5 8 12 11 16 7
4 -4 -2 -17 -14 -30 -27 -29 -27 -42 -3 -98 23 -54 39 -165 22 -155 -7 4 -15
-2 -20 -16 -9 -24 -14 -7 -40 145 -12 67 -5 255 12 307 l11 35 9 -37 c5 -22 5
-61 -1 -100z m1173 -77 c7 -21 6 -23 -15 -16 -22 7 -23 5 -17 -30 4 -26 3 -35
-6 -32 -15 5 -12 90 6 162 l12 50 6 -55 c4 -30 10 -66 14 -79z m-1040 99 c3
-5 1 -10 -4 -10 -6 0 -11 5 -11 10 0 6 2 10 4 10 3 0 8 -4 11 -10z m323 -38
c2 -7 -2 -12 -10 -12 -17 1 -49 25 -42 33 9 8 47 -8 52 -21z m867 18 c4 -6 -6
-10 -22 -10 -22 0 -25 2 -13 10 19 12 27 12 35 0z m-2003 -5 c16 -6 13 -88 -4
-122 -9 -19 -7 -25 13 -42 22 -17 26 -18 41 -4 17 15 58 10 58 -7 0 -25 -102
-28 -163 -5 -49 18 -57 29 -33 42 9 5 15 28 17 63 1 30 4 61 7 68 4 12 39 16
64 7z m1729 -48 c-10 -9 -11 -8 -5 6 3 10 9 15 12 12 3 -3 0 -11 -7 -18z m187
-5 c6 -18 -15 -14 -22 4 -4 10 -1 14 6 12 6 -2 14 -10 16 -16z m-1615 -61 c-4
-41 -2 -61 7 -66 9 -5 11 -4 6 3 -4 7 -5 12 -2 12 11 0 36 -59 36 -84 0 -14 5
-28 10 -31 6 -3 10 -18 11 -33 0 -24 1 -25 9 -7 5 11 9 14 9 7 1 -7 -5 -21
-11 -32 -11 -16 -10 -23 5 -37 18 -17 19 -17 43 12 28 35 32 53 7 34 -16 -13
-17 -12 -5 3 10 13 11 22 2 40 l-11 23 20 -24 c26 -29 27 -13 5 51 -8 26 -14
61 -12 80 l3 33 89 3 c88 3 89 3 82 -20 -17 -62 -17 -80 4 -145 13 -37 28 -75
35 -83 24 -30 65 -112 70 -143 6 -30 -1 -39 -84 -124 l-90 -93 -23 30 c-13 17
-37 45 -54 64 -18 18 -34 49 -38 71 -4 22 -14 48 -22 59 -14 20 -14 20 -14 -6
0 -29 -20 -51 -36 -40 -11 7 -11 21 0 63 7 24 7 24 -16 -2 -28 -33 -96 -79
-115 -79 -9 0 -3 15 19 43 32 40 41 56 67 120 16 41 15 42 -29 7 -22 -17 -40
-26 -40 -20 0 6 14 46 32 88 20 49 27 77 20 80 -26 8 -62 45 -62 64 0 11 6 32
14 46 7 15 21 44 30 65 22 52 35 38 29 -32z m1664 63 c-3 -3 -12 -4 -19 -1 -8
3 -5 6 6 6 11 1 17 -2 13 -5z m20 -29 c-22 -20 -31 -22 -41 -13 -11 11 -8 15
18 24 48 18 53 15 23 -11z m-1247 -9 c0 -3 -4 -8 -10 -11 -5 -3 -10 -1 -10 4
0 6 5 11 10 11 6 0 10 -2 10 -4z m1300 -6 c-20 -13 -33 -13 -25 0 3 6 14 10
23 10 15 0 15 -2 2 -10z m-315 -10 c3 -5 1 -10 -4 -10 -6 0 -11 5 -11 10 0 6
2 10 4 10 3 0 8 -4 11 -10z m-851 -45 c4 -14 -1 -24 -16 -34 -18 -11 -20 -11
-14 4 3 9 6 28 6 43 0 28 14 21 24 -13z m401 -3 c-13 -22 -15 -34 -7 -47 7
-13 7 -26 -1 -42 -11 -26 -5 -39 14 -28 7 5 10 24 6 56 -3 27 -2 51 2 54 11 6
21 -19 21 -53 0 -31 -29 -112 -40 -112 -29 0 -31 160 -2 193 22 25 27 13 7
-21z m490 -30 c-8 -8 -25 10 -25 26 0 13 2 13 14 -4 8 -10 13 -21 11 -22z m48
-62 l7 -45 -18 35 c-10 19 -16 46 -13 59 5 32 16 10 24 -49z m-1196 -7 c-3
-10 -5 -4 -5 12 0 17 2 24 5 18 2 -7 2 -21 0 -30z m1515 -11 c32 -19 36 -42 9
-66 -20 -18 -33 -10 -45 32 -5 16 -20 25 -52 33 -24 6 -44 15 -44 20 0 14 101
0 132 -19z m-1972 -2 c0 -5 -4 -10 -9 -10 -6 0 -13 5 -16 10 -3 6 1 10 9 10 9
0 16 -4 16 -10z m-1 -37 c2 -2 -3 -3 -12 -3 -9 0 -22 10 -28 23 l-12 22 24
-20 c13 -11 26 -21 28 -22z m36 -24 c-7 -11 -35 -12 -35 -1 0 4 9 8 20 9 11 1
18 -2 15 -8z m-125 -15 c0 -2 -7 -4 -15 -4 -8 0 -15 4 -15 10 0 5 7 7 15 4 8
-4 15 -8 15 -10z m2024 10 c22 -9 20 -31 -4 -39 -19 -6 -70 20 -70 36 0 10 50
12 74 3z m-1434 -26 c0 -19 -2 -20 -10 -8 -13 19 -13 30 0 30 6 0 10 -10 10
-22z m-563 -44 c-9 -9 -28 6 -21 18 4 6 10 6 17 -1 6 -6 8 -13 4 -17z m-136
-17 c8 -7 18 -21 21 -32 4 -17 0 -20 -34 -20 -42 0 -43 2 -26 40 13 28 16 29
39 12z m1268 -84 c-15 -17 -94 -73 -105 -73 -3 0 11 19 33 43 22 24 48 63 59
87 l19 43 3 -42 c2 -24 -2 -49 -9 -58z m931 82 c0 -2 -10 -9 -22 -15 -22 -11
-22 -10 -4 4 21 17 26 19 26 11z m-2140 -29 c0 -8 -4 -18 -10 -21 -5 -3 -10 3
-10 14 0 12 5 21 10 21 6 0 10 -6 10 -14z m1256 -71 c5 -19 -10 -49 -64 -137
-38 -62 -122 -219 -186 -349 l-118 -237 -8 -118 c-5 -66 -9 -119 -9 -119 -1
-1 -12 -1 -25 0 -15 0 -51 25 -100 71 l-76 72 0 146 c0 187 14 285 43 308 12
10 16 18 9 18 -16 0 62 70 79 70 7 0 0 13 -16 30 -16 16 -26 32 -23 35 3 4 15
-7 27 -24 17 -23 29 -30 51 -28 17 1 30 4 30 8 0 3 18 33 40 67 40 60 42 62
83 61 23 -1 34 -3 25 -6 -18 -4 -25 -23 -10 -23 5 0 24 -14 43 -31 20 -19 25
-27 12 -20 -28 15 -33 14 -33 -4 0 -12 11 -15 50 -14 56 2 56 2 -7 70 l-33 35
74 48 c41 26 84 59 97 72 28 30 37 30 45 -1z m-1279 9 c13 -4 20 -10 17 -15
-8 -13 -28 -11 -50 6 -21 16 -8 20 33 9z m826 -130 c-7 -18 -12 -18 -35 3 -18
16 -18 16 -12 0 3 -9 4 -17 0 -17 -3 0 -13 26 -22 58 -8 31 -18 66 -21 77 -3
11 17 -9 45 -43 29 -36 48 -70 45 -78z m257 36 c-14 -11 -31 -20 -39 -20 -18
0 -13 5 24 24 40 21 45 20 15 -4z m-191 -26 c6 -13 8 -24 4 -24 -9 0 -53 42
-53 51 0 17 38 -5 49 -27z m-147 4 c7 -49 -86 -178 -128 -178 -11 0 -28 13
-38 31 -11 18 -15 29 -10 26 5 -3 41 28 79 68 39 40 75 73 82 74 6 0 13 -9 15
-21z m-699 -53 c39 -20 47 -39 21 -49 -26 -10 -32 -7 -40 17 -7 21 -7 21 -15
2 -7 -19 -8 -19 -8 2 -1 12 -4 29 -8 39 -7 18 -7 18 50 -11z m717 -23 c-4 -2
-3 -15 2 -30 9 -22 7 -35 -9 -65 l-19 -38 1 73 c0 78 13 118 25 82 4 -10 4
-20 0 -22z m-774 -61 c-9 -10 -16 -24 -17 -32 0 -8 -3 -9 -5 -3 -7 17 15 66
27 59 7 -5 5 -13 -5 -24z m-304 -150 c-26 -49 -48 -88 -50 -86 -4 4 29 70 65
133 44 74 34 45 -15 -47z m14 -71 c-14 -22 -29 -40 -32 -40 -4 0 0 10 8 23 8
12 21 32 29 44 7 12 15 20 18 18 2 -3 -8 -23 -23 -45z m-92 -39 c-9 -108 -19
-113 -21 -12 -2 73 0 88 12 88 13 0 15 -12 9 -76z m702 -57 c7 3 16 0 20 -6 5
-7 2 -8 -6 -3 -9 5 -11 4 -6 -4 4 -6 12 -9 17 -5 6 3 33 -16 62 -43 29 -26 69
-62 90 -80 40 -35 44 -43 23 -43 -7 0 -26 -10 -41 -22 -26 -20 -27 -20 -14 -1
11 19 8 24 -27 54 -21 19 -66 59 -99 90 -33 31 -91 81 -128 113 -64 53 -66 57
-45 65 20 7 31 0 82 -56 34 -37 64 -62 72 -59z m-410 71 c-17 -30 -50 -72 -43
-55 3 8 11 34 17 57 10 33 15 39 25 30 9 -9 10 -17 1 -32z m-172 -30 c-9 -14
-18 -25 -21 -25 -5 0 5 18 20 38 17 22 18 13 1 -13z m236 -30 c-24 -25 -46
-45 -49 -45 -3 0 15 20 39 45 24 25 46 45 49 45 3 0 -15 -20 -39 -45z m270
-52 c0 -3 -22 14 -50 37 -27 23 -50 44 -50 47 0 3 23 -14 50 -37 28 -23 50
-44 50 -47z m-480 48 c-5 -11 -15 -23 -21 -27 -6 -3 -3 5 6 20 20 30 30 35 15
7z m-57 -16 c-3 -9 -8 -14 -10 -11 -3 3 -2 9 2 15 9 16 15 13 8 -4z m717 -192
c0 -7 -114 92 -131 114 -8 10 19 -11 59 -46 39 -34 72 -65 72 -68z m-202 97
c-2 -5 15 -26 38 -47 22 -21 31 -31 20 -23 -43 30 -75 63 -70 72 7 11 15 10
12 -2z m-391 -96 c-40 -81 -65 -96 -33 -20 14 33 63 106 72 106 2 0 -15 -39
-39 -86z m-397 5 c-7 -11 -14 -18 -17 -15 -3 3 0 12 7 21 18 21 23 19 10 -6z
m618 6 c40 -11 23 -23 -18 -12 -22 6 -40 15 -40 20 0 4 8 6 18 3 9 -2 27 -7
40 -11z m1142 -49 c54 -48 74 -75 40 -54 -31 19 -120 102 -120 112 0 10 17 -3
80 -58z m-1020 37 c-1 -17 -51 -43 -79 -41 l-31 2 22 23 c20 22 88 34 88 16z
m450 -77 c58 -60 62 -66 39 -66 -17 0 -43 18 -84 60 -33 33 -66 60 -75 60 -12
1 -11 4 4 15 24 19 36 12 116 -69z m-1170 33 c12 -9 10 -10 -8 -6 -35 8 -52
-2 -52 -29 0 -13 -4 -24 -10 -24 -11 0 -12 15 -4 48 7 24 47 30 74 11z m779
-42 l24 -29 18 24 c10 12 19 18 19 12 0 -6 -8 -18 -18 -27 -16 -15 -21 -15
-38 -3 -15 11 -22 12 -34 3 -13 -10 -13 -10 -2 4 10 13 9 19 -3 29 -18 15 -20
34 -3 24 7 -5 24 -21 37 -37z m121 18 c0 -12 -19 -12 -23 0 -4 9 -1 12 9 8 7
-3 14 -7 14 -8z m-706 -93 c7 -22 6 -22 -13 -10 -16 10 -21 23 -20 58 l0 45
13 -35 c7 -19 16 -45 20 -58z m1046 73 c-7 -9 -15 -13 -17 -11 -7 7 7 26 19
26 6 0 6 -6 -2 -15z m400 -55 c0 -5 -7 -10 -15 -10 -8 0 -15 5 -15 10 0 6 7
10 15 10 8 0 15 -4 15 -10z m-360 -21 c0 -6 -4 -7 -10 -4 -5 3 -10 11 -10 16
0 6 5 7 10 4 6 -3 10 -11 10 -16z m-105 -60 c16 -24 -15 -5 -50 33 l-40 42 42
-33 c24 -18 45 -37 48 -42z m690 5 c28 -26 61 -54 73 -62 l24 -15 -38 -19
c-46 -22 -50 -22 -34 -3 9 11 10 18 1 28 -6 8 -8 17 -4 20 3 4 -8 7 -27 7 -28
0 -31 2 -20 15 10 12 10 15 -2 15 -20 0 -52 36 -43 49 10 17 17 14 70 -35z
m-485 11 c13 -14 21 -25 18 -25 -2 0 -15 11 -28 25 -13 14 -21 25 -18 25 2 0
15 -11 28 -25z m-73 9 c-3 -3 -12 -4 -19 -1 -8 3 -5 6 6 6 11 1 17 -2 13 -5z
m-748 -53 c1 -10 -3 -9 -13 4 -8 11 -11 26 -8 34 4 12 7 11 13 -5 4 -10 8 -25
8 -33z m754 2 c10 -13 26 -23 35 -23 20 0 62 -39 62 -58 0 -9 7 -24 17 -34 9
-10 14 -20 12 -22 -2 -3 -43 34 -91 80 -48 47 -80 84 -70 82 9 -2 25 -13 35
-25z m477 17 c0 -5 -4 -10 -10 -10 -5 0 -10 5 -10 10 0 6 5 10 10 10 6 0 10
-4 10 -10z m-591 -37 c0 -25 -1 -26 -9 -8 -12 27 -12 35 0 35 6 0 10 -12 9
-27z m-789 -68 c-18 -19 -36 -33 -38 -30 -8 8 40 65 56 65 11 0 6 -10 -18 -35z
m1105 15 c10 -11 16 -20 13 -20 -3 0 -13 9 -23 20 -10 11 -16 20 -13 20 3 0
13 -9 23 -20z m-645 -45 c0 -2 -13 -11 -29 -19 -33 -18 -107 -136 -141 -226
-12 -32 -27 -61 -33 -63 -7 -2 -31 -1 -55 2 l-43 6 30 45 c17 25 31 50 31 56
0 17 86 125 122 153 37 29 118 61 118 46z m135 -30 c33 -9 80 -22 104 -28 27
-8 50 -22 60 -37 l16 -25 -27 18 c-15 9 -30 17 -34 17 -15 0 26 -36 135 -117
135 -101 171 -132 171 -150 0 -19 -47 -16 -54 3 -5 13 -2 15 15 11 21 -6 21
-5 6 10 -13 13 -19 14 -30 4 -12 -9 -24 -4 -60 26 -25 21 -46 44 -46 52 -1 11
-4 11 -16 1 -12 -10 -15 -10 -16 1 -1 19 -146 112 -164 105 -10 -3 -14 -20
-14 -48 1 -94 -6 -100 -39 -33 -19 39 -26 45 -52 45 -16 0 -30 -4 -30 -10 0
-18 -20 -11 -45 16 -20 21 -25 23 -25 10 0 -9 7 -28 16 -42 13 -18 22 -23 38
-18 18 6 19 5 7 -10 -7 -9 -19 -16 -25 -16 -7 0 -17 -12 -24 -27 -12 -28 -12
-28 -8 7 3 28 -2 43 -24 70 l-27 34 -24 -42 c-25 -44 -39 -53 -39 -26 0 23 20
55 30 49 6 -3 15 6 22 20 9 21 9 31 0 46 -16 26 -3 51 46 84 41 28 55 28 157
0z m187 8 c10 -9 18 -29 18 -45 0 -26 -2 -28 -20 -18 -11 6 -20 16 -20 22 0 7
5 6 15 -2 9 -8 15 -9 15 -2 0 6 -4 14 -10 17 -13 8 -33 45 -24 45 4 0 16 -7
26 -17z m457 -57 c1 -5 27 -34 59 -64 31 -30 43 -45 26 -33 -18 11 -60 53 -95
93 -46 53 -54 65 -27 43 20 -16 37 -34 37 -39z m-1291 -136 c-34 -39 -68 -81
-75 -93 -7 -12 -12 -16 -13 -9 0 17 27 53 92 120 72 74 70 65 -4 -18z m1422
66 c0 -11 -19 -15 -25 -6 -3 5 1 10 9 10 9 0 16 -2 16 -4z m-1237 -63 c-41
-62 -51 -73 -71 -73 -7 0 13 29 45 65 32 36 59 65 61 65 1 0 -15 -26 -35 -57z
m-456 -13 c-6 -16 -13 -27 -15 -25 -7 7 8 55 17 55 5 0 4 -13 -2 -30z m1603 9
c0 -6 -4 -7 -10 -4 -5 3 -10 11 -10 16 0 6 5 7 10 4 6 -3 10 -11 10 -16z
m-1147 -46 c-32 -72 -38 -79 -39 -45 -1 15 1 21 3 14 3 -7 16 9 29 37 13 28
25 51 28 51 3 0 -7 -26 -21 -57z m1177 37 c0 -5 -2 -10 -4 -10 -3 0 -8 5 -11
10 -3 6 -1 10 4 10 6 0 11 -4 11 -10z m150 -21 c0 -6 -4 -7 -10 -4 -5 3 -10
11 -10 16 0 6 5 7 10 4 6 -3 10 -11 10 -16z m-1122 -48 c7 -7 11 -20 8 -28 -3
-8 -6 -19 -6 -24 0 -5 -10 -9 -23 -9 -13 0 -28 -5 -34 -11 -6 -6 -16 -8 -22
-5 -17 11 -13 26 8 26 23 0 31 18 32 73 0 40 1 41 12 17 6 -14 18 -31 25 -39z
m1090 -11 c23 -18 42 -36 42 -39 0 -4 -9 -12 -20 -18 -16 -11 -18 -10 -13 3 3
10 -9 27 -36 50 -22 20 -41 40 -41 46 0 7 4 7 13 1 6 -5 31 -25 55 -43z m57
40 c3 -5 1 -10 -4 -10 -6 0 -11 5 -11 10 0 6 2 10 4 10 3 0 8 -4 11 -10z
m-1782 -51 c-6 -6 -7 3 -4 23 4 28 6 29 9 9 2 -13 0 -27 -5 -32z m1837 1 c0
-6 -9 -5 -20 2 -11 7 -20 16 -20 21 0 4 9 3 20 -3 11 -6 20 -15 20 -20z
m-1530 -3 c0 -2 -11 -18 -25 -37 -14 -19 -25 -29 -25 -23 0 6 9 22 21 37 18
23 29 32 29 23z m1410 -29 c0 -12 -6 -9 -26 13 -19 22 -19 22 4 8 12 -8 22
-17 22 -21z m-129 5 c13 -16 12 -17 -3 -4 -17 13 -22 21 -14 21 2 0 10 -8 17
-17z m225 -11 c0 -4 4 -20 9 -36 5 -20 4 -31 -6 -37 -19 -12 -29 -11 -29 3 0
6 -8 20 -17 30 -16 18 -16 19 5 25 12 3 22 12 22 21 0 14 14 9 16 -6z m1024
-23 c0 -6 -4 -7 -10 -4 -5 3 -10 11 -10 16 0 6 5 7 10 4 6 -3 10 -11 10 -16z
m-50 1 c-8 -5 -24 -9 -35 -9 l-20 0 20 9 c11 5 27 9 35 9 13 1 13 0 0 -9z
m-1265 -30 c10 -11 16 -20 13 -20 -3 0 -13 9 -23 20 -10 11 -16 20 -13 20 3 0
13 -9 23 -20z m390 -14 c6 3 26 -12 45 -33 19 -20 27 -31 17 -24 -15 12 -17
12 -11 -3 3 -9 14 -16 24 -16 10 0 24 -8 31 -17 13 -17 12 -17 -6 -3 -11 8 -2
-5 20 -28 21 -23 44 -41 50 -39 13 3 98 -63 90 -71 -3 -3 -21 10 -40 28 -41
39 -46 36 -10 -6 14 -16 25 -32 25 -36 0 -5 5 -8 12 -8 7 0 32 -19 55 -42 47
-46 56 -87 26 -120 -19 -22 -41 -25 -23 -3 10 12 10 18 0 30 -11 13 -10 18 6
30 23 18 11 20 -16 3 -16 -11 -22 -9 -34 7 -20 27 -20 32 5 40 11 4 18 9 16
12 -3 2 -20 -3 -37 -12 -18 -9 -29 -12 -26 -6 4 5 -1 14 -11 19 -14 9 -15 13
-4 26 8 10 9 16 3 16 -6 0 -13 -4 -17 -10 -3 -5 -13 -2 -24 8 -13 13 -15 21
-7 31 9 12 7 13 -7 8 -11 -4 -16 -3 -12 4 4 6 -3 13 -14 16 -17 4 -19 8 -10
19 18 22 -5 17 -37 -8 -26 -20 -27 -20 -11 -2 19 23 22 44 6 44 -5 0 -7 5 -4
10 11 17 -11 11 -41 -12 -25 -19 -26 -19 -12 -2 11 13 14 24 8 34 -6 9 -4 20
3 29 9 10 2 9 -23 -4 -30 -16 -33 -16 -21 -2 12 15 10 18 -10 26 -13 5 -28 6
-33 3 -5 -3 -6 0 -2 7 4 6 12 9 17 6 5 -4 17 -1 26 5 17 11 17 11 0 6 -10 -3
-28 0 -39 8 -20 14 -20 14 1 21 12 3 18 11 15 17 -4 7 0 7 12 0 11 -5 24 -8
29 -6z m-673 -28 c-12 -12 -25 -18 -29 -14 -4 4 3 16 17 26 32 24 40 16 12
-12z m-494 2 c-15 -24 -24 -25 -31 -6 -4 10 -1 13 7 10 8 -3 17 -1 21 5 3 6 8
11 11 11 2 0 -1 -9 -8 -20z m954 -2 c-7 -7 -12 -8 -12 -2 0 6 3 14 7 17 3 4 9
5 12 2 2 -3 -1 -11 -7 -17z m1195 16 c-3 -3 -12 -4 -19 -1 -8 3 -5 6 6 6 11 1
17 -2 13 -5z m-59 -11 c-2 -5 -26 -55 -53 -113 -27 -58 -67 -139 -88 -180 -22
-41 -46 -93 -53 -115 -13 -37 -13 -39 2 -20 l17 20 -8 -20 c-4 -11 -12 -32
-17 -47 -5 -16 -14 -25 -19 -22 -5 3 -6 -1 -3 -9 3 -9 -3 -17 -18 -21 -60 -16
-60 -12 -7 107 27 61 61 129 74 149 14 21 25 43 25 49 0 19 91 213 104 221 15
10 49 10 44 1z m-1652 -66 l21 -33 -45 -50 c-24 -27 -68 -83 -98 -125 l-53
-76 -57 -2 c-31 -1 -64 -6 -74 -11 -15 -8 -19 -4 -24 23 -3 17 -1 59 4 92 5
33 10 79 10 102 0 23 3 49 6 58 6 15 8 15 24 0 17 -15 21 -15 49 -1 16 9 41
16 54 16 12 0 28 5 34 11 7 7 25 9 47 5 l36 -7 1 -57 1 -57 9 50 c20 110 22
113 55 62z m664 -31 c0 -6 -13 3 -30 19 -16 16 -30 33 -30 39 0 12 59 -46 60
-58z m-1640 29 c10 -12 10 -15 -4 -15 -9 0 -16 7 -16 15 0 8 2 15 4 15 2 0 9
-7 16 -15z m1580 -30 c0 -12 -19 -12 -23 0 -4 9 -1 12 9 8 7 -3 14 -7 14 -8z
m101 -31 c23 -25 23 -26 2 -13 -13 7 -25 19 -27 26 -8 19 -2 16 25 -13z m996
-31 c-9 -9 -77 20 -77 33 0 12 7 11 40 -7 22 -12 38 -24 37 -26z m-1522 1 c30
-20 55 -39 55 -41 0 -6 -70 34 -100 57 -42 33 -13 22 45 -16z m465 16 c0 -5
-5 -10 -11 -10 -5 0 -7 5 -4 10 3 6 8 10 11 10 2 0 4 -4 4 -10z m120 -35 c7
-8 8 -15 2 -15 -5 0 -15 7 -22 15 -7 8 -8 15 -2 15 5 0 15 -7 22 -15z m-80 -5
c0 -5 -4 -10 -10 -10 -5 0 -10 5 -10 10 0 6 5 10 10 10 6 0 10 -4 10 -10z
m1155 -31 c-10 -15 -25 -10 -19 6 4 8 10 12 15 9 5 -3 7 -10 4 -15z m-1125 -4
c7 -9 8 -15 2 -15 -5 0 -12 7 -16 15 -3 8 -4 15 -2 15 2 0 9 -7 16 -15z
m-2000 -20 c7 -8 8 -15 2 -15 -5 0 -15 7 -22 15 -7 8 -8 15 -2 15 5 0 15 -7
22 -15z m2138 -2 c2 -7 -3 -13 -10 -13 -15 0 -48 -65 -48 -94 0 -11 -4 -14
-12 -10 -7 5 -9 2 -5 -8 3 -9 3 -19 -1 -23 -8 -7 -9 -13 -11 -52 -1 -25 -3
-26 -12 -10 -11 19 -9 34 17 127 26 91 32 102 56 98 12 -2 23 -9 26 -15z m188
-14 c20 -22 23 -28 8 -19 -18 11 -50 50 -41 50 2 0 16 -14 33 -31z m169 -14
c30 -14 55 -29 55 -35 0 -14 -18 -12 -22 2 -4 10 -10 10 -32 0 -15 -6 -24 -17
-21 -22 3 -6 1 -10 -4 -10 -6 0 -10 -4 -8 -9 1 -5 -7 -16 -17 -24 -15 -11 -27
-12 -48 -5 -40 14 -32 38 19 64 49 25 46 34 -12 34 -29 0 -47 6 -59 19 -17 19
-17 20 6 23 30 5 73 -7 143 -37z m-435 15 c0 -5 -7 -10 -16 -10 -8 0 -13 -4
-10 -9 3 -4 -1 -16 -8 -26 -13 -18 -14 -18 -21 4 -4 13 -2 28 5 36 14 17 50
20 50 5z m1165 -30 c-10 -11 -23 -20 -28 -20 -6 0 -30 -9 -54 -21 -40 -20 -88
-19 -67 0 13 13 116 41 126 35 4 -3 11 2 14 10 3 9 11 16 17 16 5 0 2 -9 -8
-20z m-1885 -40 c-12 -16 -24 -30 -26 -30 -3 0 4 14 16 30 12 17 24 30 26 30
3 0 -4 -13 -16 -30z m874 14 c20 -19 20 -30 1 -38 -10 -3 -15 1 -15 11 0 14
-4 12 -24 -6 -14 -13 -22 -29 -20 -35 5 -13 -33 -53 -41 -44 -6 6 30 96 47
115 14 17 33 16 52 -3z m684 -10 c17 -12 35 -14 72 -9 39 5 50 4 50 -7 0 -11
2 -10 9 1 5 7 14 10 20 7 20 -13 12 -33 -19 -46 -29 -12 -54 -11 -95 5 -18 7
-17 5 4 -19 14 -14 47 -33 74 -41 48 -14 50 -14 79 10 37 31 42 31 68 -2 l22
-28 -84 -17 c-45 -9 -101 -15 -123 -13 -48 5 -153 57 -147 73 5 16 -11 15 -26
0 -9 -9 -12 -9 -12 0 0 7 5 12 11 12 6 0 9 6 6 13 -3 7 1 27 9 45 15 36 45 42
82 16z m-896 -47 c-17 -33 -28 -22 -18 18 4 15 11 22 20 19 12 -4 11 -10 -2
-37z m1524 6 c-7 -7 -26 7 -26 19 0 6 6 6 15 -2 9 -7 13 -15 11 -17z m-745
-10 c-12 -20 -14 -14 -5 12 4 9 9 14 11 11 3 -2 0 -13 -6 -23z m599 2 c-7 -8
-16 -15 -20 -15 -4 0 -10 7 -14 15 -4 11 2 15 21 15 21 0 24 -2 13 -15z
m-2105 -52 c-10 -14 -26 -41 -37 -60 -22 -37 -35 -46 -17 -10 19 35 61 97 66
97 3 0 -3 -12 -12 -27z m1054 -34 c20 -20 24 -29 15 -37 -9 -8 -14 -7 -20 6
-4 9 -7 20 -6 24 1 4 -12 18 -28 32 -17 13 -30 28 -30 32 0 7 24 -12 69 -57z
m-51 -1 c16 -16 15 -46 -2 -64 -21 -20 -28 -17 -14 6 10 15 10 22 1 31 -9 9
-13 6 -19 -15 -9 -38 -27 -33 -19 7 10 44 31 57 53 35z m-174 -42 c-3 -15 -8
-25 -11 -23 -2 3 -1 17 3 31 3 15 8 25 11 23 2 -3 1 -17 -3 -31z m460 18 c4
-11 -4 -19 -29 -30 -43 -18 -51 -18 -58 0 -7 18 10 33 43 39 14 2 28 5 31 6 4
0 10 -6 13 -15z m-197 -21 c-4 -3 -1 -13 6 -22 11 -14 10 -14 -5 -2 -16 12
-16 31 -1 31 4 0 3 -3 0 -7z m-1327 -23 c-6 -11 -13 -20 -16 -20 -2 0 0 9 6
20 6 11 13 20 16 20 2 0 0 -9 -6 -20z m1387 -10 c16 0 23 -27 10 -38 -8 -7
-19 -4 -36 9 -19 16 -20 19 -6 19 17 0 17 2 -1 23 -19 22 -19 22 2 5 11 -10
25 -18 31 -18z m523 5 c13 -14 21 -28 17 -31 -7 -7 -66 36 -66 49 -2 16 27 6
49 -18z m-1750 -15 c-6 -11 -13 -20 -16 -20 -2 0 0 9 6 20 6 11 13 20 16 20 2
0 0 -9 -6 -20z m1360 -15 c0 -2 -15 -12 -32 -21 -18 -9 -46 -31 -61 -48 -22
-25 -27 -27 -25 -11 5 31 118 108 118 80z m60 -8 c0 -2 -10 -12 -21 -23 -22
-19 -22 -19 -8 4 12 19 29 30 29 19z m281 -14 c13 -16 12 -17 -3 -4 -17 13
-22 21 -14 21 2 0 10 -8 17 -17z m-797 -19 c3 -8 2 -12 -4 -9 -6 3 -10 10 -10
16 0 14 7 11 14 -7z m774 -22 c-7 -10 -13 -19 -15 -21 -1 -1 -7 0 -13 4 -8 5
-6 13 6 26 20 22 40 14 22 -9z m-235 -17 c-6 -18 -19 -19 -29 -4 -7 12 15 31
28 23 4 -3 5 -11 1 -19z m87 -10 l25 -30 -27 24 c-16 14 -28 29 -28 34 0 6 1
8 3 6 1 -2 13 -17 27 -34z m180 31 c0 -2 -8 -10 -17 -17 -16 -13 -17 -12 -4 4
13 16 21 21 21 13z m300 -16 c0 -5 -8 -10 -17 -10 -15 0 -16 2 -3 10 19 12 20
12 20 0z m-1969 -27 c-12 -20 -14 -14 -5 12 4 9 9 14 11 11 3 -2 0 -13 -6 -23z
m1309 -12 c0 -17 -18 -21 -24 -6 -3 9 0 15 9 15 8 0 15 -4 15 -9z m125 -13
c-11 21 6 13 50 -23 23 -19 46 -31 51 -27 5 4 0 -3 -10 -15 -11 -13 -25 -23
-33 -23 -8 0 -12 -4 -8 -9 3 -5 1 -12 -4 -15 -5 -3 -11 1 -14 8 -3 8 -1 16 6
19 7 2 -6 22 -30 47 -23 24 -39 48 -36 53 3 4 12 0 20 -10 8 -10 12 -12 8 -5z
m-27 -28 c34 -40 30 -50 -7 -15 -22 21 -41 43 -41 48 0 10 27 -9 48 -33z
m-128 1 c0 -14 -18 -23 -30 -16 -6 4 -8 11 -5 16 8 12 35 12 35 0z m595 -21
c-3 -5 -11 -10 -16 -10 -6 0 -7 5 -4 10 3 6 11 10 16 10 6 0 7 -4 4 -10z m-95
-29 c3 -2 -7 -1 -22 3 -17 4 -28 2 -28 -4 0 -5 -4 -10 -8 -10 -5 0 -9 7 -9 15
0 8 4 12 8 9 4 -2 11 0 14 6 6 10 16 6 45 -19z m-85 -10 c-8 -14 -32 -14 -41
1 -4 6 -3 8 2 5 6 -3 16 -2 24 3 17 11 25 6 15 -9z m-455 -6 c0 -1 -10 -10
-22 -21 -13 -10 -18 -12 -11 -5 6 7 9 20 6 27 -4 10 0 12 11 8 9 -3 16 -7 16
-9z m388 -12 c-10 -2 -26 -2 -35 0 -10 3 -2 5 17 5 19 0 27 -2 18 -5z m-180
-23 c7 -11 10 -20 6 -20 -7 0 -34 27 -34 34 0 13 16 5 28 -14z m155 -13 c3 -8
30 -31 61 -51 31 -20 56 -42 56 -48 0 -7 10 -22 22 -36 l23 -23 -25 -19 -24
-18 -96 82 c-100 84 -106 96 -55 116 28 12 32 12 38 -3z m-180 -48 c-7 -9 -10
-19 -6 -23 4 -4 0 -4 -10 0 -9 3 -17 10 -17 16 0 5 6 6 13 2 9 -6 9 -4 -1 8
-7 8 -10 22 -6 31 5 14 7 14 23 -1 15 -14 16 -19 4 -33z m85 30 c-2 -6 -8 -10
-13 -10 -5 0 -11 4 -13 10 -2 6 4 11 13 11 9 0 15 -5 13 -11z m-120 -61 c17
-17 15 -24 -8 -25 -22 -2 -34 12 -25 27 8 13 18 13 33 -2z m41 -34 c-6 -8 -15
-12 -18 -8 -3 4 0 9 7 11 6 3 9 10 6 15 -4 7 -2 8 5 4 9 -6 9 -11 0 -22z"/>
<path d="M1530 3293 c0 -22 2 -25 10 -13 8 13 10 12 10 -3 0 -10 4 -16 9 -12
5 3 11 -3 13 -12 3 -10 4 1 4 25 -1 37 -3 42 -23 42 -18 0 -23 -6 -23 -27z"/>
<path d="M2037 2923 c-4 -3 -7 -11 -7 -17 0 -6 5 -5 12 2 6 6 9 14 7 17 -3 3
-9 2 -12 -2z"/>
<path d="M1937 2410 c-4 -14 -6 -36 -6 -50 1 -18 4 -14 10 14 10 44 6 75 -4
36z"/>
<path d="M1980 2136 c0 -2 8 -10 18 -17 15 -13 16 -12 3 4 -13 16 -21 21 -21
13z"/>
<path d="M3030 1310 c-12 -8 -9 -10 13 -10 15 0 27 5 27 10 0 13 -20 13 -40 0z"/>
<path d="M3440 1275 c-10 -12 -9 -15 8 -15 11 0 28 -3 38 -7 14 -5 13 -2 -4
15 -26 26 -26 26 -42 7z"/>
<path d="M4199 4168 c-13 -13 -55 -68 -94 -123 -83 -118 -203 -244 -262 -274
-54 -27 -99 -28 -113 -1 -20 37 25 93 142 179 32 23 62 50 68 61 24 45 -17 80
-66 58 -13 -6 -36 -32 -51 -57 -33 -57 -112 -141 -175 -187 -60 -44 -88 -90
-88 -143 0 -73 18 -81 172 -81 123 0 133 -2 156 -22 18 -18 35 -23 78 -23 l54
0 0 -276 c0 -236 -2 -278 -15 -283 -11 -4 -14 -18 -12 -56 2 -27 1 -48 -1 -45
-3 3 -45 -95 -94 -217 -49 -122 -94 -231 -101 -243 -7 -11 -23 -47 -36 -80
-31 -77 -41 -88 -42 -44 -1 18 -3 51 -5 72 -2 20 1 37 5 37 5 0 5 21 0 47 -6
31 -5 50 2 60 6 7 8 13 4 13 -5 0 -1 8 7 18 9 9 23 31 32 49 15 31 15 33 -3
43 -30 16 -47 12 -59 -12 -9 -21 -11 -18 -11 20 -1 23 -5 42 -10 42 -16 0 -20
-14 -12 -50 5 -27 2 -42 -15 -67 -22 -33 -22 -33 -3 -92 10 -33 23 -68 28 -78
5 -10 17 -49 26 -88 l16 -70 -46 -115 c-25 -63 -50 -123 -55 -132 -9 -15 -6
-18 19 -18 21 0 37 -10 60 -37 17 -21 30 -35 31 -31 0 4 -14 23 -31 43 -36 41
-41 20 45 214 25 57 46 110 46 118 0 7 18 50 41 94 22 45 42 91 43 103 1 11
20 59 42 106 22 47 51 111 64 143 13 33 30 61 38 65 19 7 68 -21 64 -37 -1 -7
2 -10 8 -6 18 11 24 -26 10 -63 -7 -20 -41 -88 -75 -152 -140 -261 -294 -556
-300 -575 -3 -11 2 -5 11 13 10 17 21 32 24 32 4 0 12 -45 19 -100 l13 -100
27 19 26 19 -4 -52 -3 -51 23 20 c13 11 33 29 44 41 11 11 90 85 175 163 85
78 162 149 171 159 24 25 49 78 49 102 0 11 7 23 15 26 24 10 153 173 161 204
7 28 38 82 49 87 8 3 15 11 15 19 0 14 12 18 39 15 7 -2 10 2 6 9 -4 6 2 21
13 33 11 12 25 32 31 45 6 12 21 22 31 22 11 0 20 5 20 10 0 6 -5 10 -11 10
-8 0 -8 5 1 15 7 8 19 15 26 15 8 0 13 6 11 13 -1 6 7 12 18 12 13 0 19 6 17
18 -2 9 2 17 8 17 5 0 10 6 10 13 0 7 14 21 31 31 17 10 35 28 40 39 12 26 54
48 76 40 12 -5 14 -1 9 14 -5 14 -1 23 10 27 9 4 14 9 11 13 -4 3 -2 12 4 20
8 9 8 13 0 13 -6 0 -18 -11 -27 -25 -9 -14 -20 -22 -25 -19 -5 3 -33 -18 -62
-45 -30 -28 -57 -51 -61 -51 -15 0 -76 -53 -76 -66 0 -8 -4 -14 -10 -14 -5 0
-10 -7 -10 -16 0 -10 -6 -14 -14 -11 -9 4 -17 -2 -21 -12 -4 -13 -12 -17 -25
-14 -13 4 -22 -1 -27 -13 -14 -40 -47 -74 -64 -69 -10 3 -20 1 -24 -5 -3 -5
-1 -10 4 -10 27 0 8 -19 -21 -22 -26 -2 -34 -8 -36 -27 -2 -13 -11 -31 -19
-40 -14 -14 -15 -13 -9 7 4 12 4 22 -1 22 -14 0 -85 -61 -216 -185 -109 -102
-128 -125 -134 -157 -3 -21 -13 -43 -21 -50 -13 -11 -15 -10 -9 6 4 11 17 58
29 105 11 47 27 98 34 113 8 15 14 38 14 52 0 18 4 24 15 20 11 -5 12 -11 5
-24 -15 -28 -12 -40 8 -33 47 17 124 84 312 268 113 110 248 240 301 288 95
86 125 127 117 164 -5 24 -45 19 -76 -10 -13 -12 -51 -58 -85 -102 -97 -128
-186 -224 -272 -292 -68 -54 -85 -63 -115 -61 -31 3 -36 7 -46 43 l-11 40 -8
-30 c-4 -17 -10 -24 -12 -17 -4 10 -8 10 -20 0 -13 -10 -21 -6 -49 27 -19 22
-32 44 -31 50 5 14 -24 42 -57 55 -21 8 -26 14 -18 22 17 17 67 -8 106 -53 18
-22 35 -39 39 -39 10 0 -6 45 -23 65 -10 11 -22 29 -28 39 -7 15 -23 20 -63
23 -57 3 -64 6 -54 23 4 6 19 9 36 6 16 -3 42 -9 58 -12 19 -3 39 -19 57 -45
15 -22 37 -45 48 -51 21 -11 21 -11 0 13 -12 13 -33 43 -47 65 -23 38 -31 43
-76 49 -68 9 -65 25 4 25 54 0 56 -1 87 -45 36 -51 49 -53 23 -3 -10 18 -21
39 -25 47 -3 8 -21 20 -39 26 -18 6 -29 14 -24 19 4 5 -2 6 -15 3 -22 -5 -22
-4 -9 16 8 12 17 38 21 57 16 83 95 193 116 161 5 -10 9 -9 13 3 3 8 2 18 -4
22 -5 3 -7 14 -4 25 5 15 1 19 -14 19 -21 0 -21 4 -21 235 l0 235 -79 0 c-57
0 -80 4 -84 13 -10 28 29 85 124 177 105 103 124 137 94 170 -24 26 -57 25
-86 -2z m-38 -1507 c-27 -37 -56 -43 -46 -8 4 12 13 27 21 33 8 6 14 17 14 25
0 10 4 9 16 -3 15 -15 15 -19 -5 -47z m-16 -131 c2 -29 1 -29 -16 -14 -14 13
-16 21 -8 36 13 25 22 17 24 -22z m205 -25 c0 -8 -4 -15 -10 -15 -5 0 -10 7
-10 15 0 8 5 15 10 15 6 0 10 -7 10 -15z m-356 -98 c-13 -63 -30 -117 -37
-117 -2 0 -3 16 -1 35 1 21 -2 33 -7 29 -6 -3 4 21 21 55 16 34 32 61 34 61 2
0 -2 -28 -10 -63z m256 -187 c0 -5 -5 -10 -11 -10 -5 0 -7 5 -4 10 3 6 8 10
11 10 2 0 4 -4 4 -10z m-49 -18 c-5 -10 -47 -51 -93 -92 -46 -40 -109 -99
-140 -131 -32 -31 -58 -54 -58 -50 0 3 11 24 25 46 13 22 38 67 55 100 17 33
30 51 30 40 0 -11 -7 -32 -14 -47 -8 -16 -12 -28 -9 -28 3 0 48 41 100 90 91
87 125 111 104 72z m-168 -37 c-3 -9 -8 -14 -10 -11 -3 3 -2 9 2 15 9 16 15
13 8 -4z m-372 -112 c-12 -20 -14 -14 -5 12 4 9 9 14 11 11 3 -2 0 -13 -6 -23z
m-11 -38 c0 -8 -4 -15 -10 -15 -5 0 -7 7 -4 15 4 8 8 15 10 15 2 0 4 -7 4 -15z
m250 -119 c0 -2 -8 -10 -17 -17 -16 -13 -17 -12 -4 4 13 16 21 21 21 13z"/>
<path d="M4320 4075 c-7 -8 -8 -15 -2 -15 5 0 15 7 22 15 7 8 8 15 2 15 -5 0
-15 -7 -22 -15z"/>
<path d="M3495 3900 c-3 -5 -1 -10 4 -10 6 0 11 5 11 10 0 6 -2 10 -4 10 -3 0
-8 -4 -11 -10z"/>
<path d="M3376 3774 c-7 -17 -51 -17 -75 1 -12 8 -13 5 -8 -15 4 -14 7 -37 7
-51 0 -34 44 -79 70 -72 24 6 26 19 4 27 -8 3 -12 10 -9 16 8 13 16 12 39 -5
17 -13 17 -17 5 -31 -12 -15 -12 -17 1 -12 8 2 17 15 18 29 2 13 8 28 13 34
20 21 9 56 -21 69 -17 7 -27 15 -23 19 3 4 2 7 -4 7 -6 0 -14 -7 -17 -16z"/>
<path d="M3396 3555 c4 -8 7 -15 9 -15 2 0 5 7 9 15 3 9 0 15 -9 15 -9 0 -12
-6 -9 -15z"/>
<path d="M2870 3520 c-8 -5 -12 -12 -9 -15 4 -3 12 1 19 10 14 17 11 19 -10 5z"/>
<path d="M3375 3450 c-4 -12 -5 -24 -2 -27 3 -2 8 5 12 17 4 12 5 24 2 27 -3
2 -8 -5 -12 -17z"/>
<path d="M3790 3450 c0 -5 5 -10 10 -10 6 0 10 5 10 10 0 6 -4 10 -10 10 -5 0
-10 -4 -10 -10z"/>
<path d="M3356 3395 c-9 -26 -7 -32 5 -12 6 10 9 21 6 23 -2 3 -7 -2 -11 -11z"/>
<path d="M2653 3337 c-28 -23 -52 -45 -52 -49 -2 -19 24 -4 71 42 62 61 52 64
-19 7z"/>
<path d="M3915 3290 c-10 -11 -26 -20 -37 -20 -10 0 -18 -4 -18 -10 0 -5 -7
-10 -15 -10 -9 0 -18 -7 -22 -16 -3 -8 -15 -20 -27 -25 -11 -5 -41 -25 -66
-44 -25 -20 -58 -43 -73 -53 -16 -9 -50 -33 -75 -53 -26 -20 -67 -47 -92 -60
-47 -26 -56 -45 -28 -62 13 -9 28 0 77 42 42 37 66 51 79 47 13 -5 27 5 50 34
18 21 53 53 77 70 25 17 45 37 45 44 0 12 24 31 109 88 14 10 32 21 39 24 14
7 16 24 4 24 -5 0 -17 -9 -27 -20z"/>
<path d="M4326 3195 c-9 -26 -7 -32 5 -12 6 10 9 21 6 23 -2 3 -7 -2 -11 -11z"/>
<path d="M4482 3128 c-88 -113 -187 -157 -212 -95 -8 19 -9 19 -9 3 -1 -13 -6
-16 -17 -12 -13 5 -14 3 -7 -6 6 -7 21 -52 33 -100 l23 -88 29 39 c15 21 61
65 101 97 91 72 117 102 117 135 0 24 -16 49 -32 49 -5 0 -16 -10 -26 -22z"/>
<path d="M4287 3105 c-24 -50 -20 -58 4 -12 11 22 19 41 17 43 -3 2 -12 -12
-21 -31z"/>
<path d="M3070 3126 c0 -2 8 -10 18 -17 15 -13 16 -12 3 4 -13 16 -21 21 -21
13z"/>
<path d="M3555 3121 c-6 -5 -26 -17 -45 -27 -94 -50 -162 -119 -97 -98 38 12
184 134 160 134 -5 0 -13 -4 -18 -9z"/>
<path d="M3110 3097 c0 -2 15 -16 33 -33 l32 -29 -29 33 c-28 30 -36 37 -36
29z"/>
<path d="M5030 3085 c-7 -8 -11 -15 -9 -16 2 0 14 -2 26 -3 18 -2 20 0 12 16
-12 22 -13 22 -29 3z"/>
<path d="M3945 3070 c-3 -5 -1 -10 4 -10 6 0 11 5 11 10 0 6 -2 10 -4 10 -3 0
-8 -4 -11 -10z"/>
<path d="M4970 3045 c-10 -12 -10 -15 3 -15 8 0 20 7 27 15 10 12 10 15 -3 15
-8 0 -20 -7 -27 -15z"/>
<path d="M3223 2991 c20 -25 37 -51 37 -58 0 -8 5 -11 11 -8 6 4 21 -3 35 -16
13 -12 26 -20 28 -18 3 2 -30 36 -72 74 -60 55 -69 60 -39 26z"/>
<path d="M3346 2925 c-3 -8 -1 -15 4 -15 13 0 22 18 11 24 -5 3 -11 -1 -15 -9z"/>
<path d="M3750 2930 c0 -5 7 -10 15 -10 8 0 15 5 15 10 0 6 -7 10 -15 10 -8 0
-15 -4 -15 -10z"/>
<path d="M3582 2868 c3 -7 13 -15 24 -17 16 -3 17 -1 5 13 -16 19 -34 21 -29
4z"/>
<path d="M3900 2852 c-13 -10 -21 -24 -19 -30 3 -8 15 0 31 18 29 33 23 40
-12 12z"/>
<path d="M4776 2815 c-9 -14 -12 -25 -7 -25 5 0 16 11 25 25 9 14 12 25 7 25
-5 0 -16 -11 -25 -25z"/>
<path d="M3851 2806 c-16 -19 -11 -29 8 -17 7 5 12 14 9 21 -3 9 -8 7 -17 -4z"/>
<path d="M3750 2690 c0 -5 5 -10 11 -10 5 0 7 5 4 10 -3 6 -8 10 -11 10 -2 0
-4 -4 -4 -10z"/>
<path d="M3757 2503 c-4 -3 -7 -11 -7 -17 0 -6 5 -5 12 2 6 6 9 14 7 17 -3 3
-9 2 -12 -2z"/>
<path d="M3595 1949 c-4 -6 -5 -13 -2 -16 8 -8 67 7 67 18 0 13 -57 11 -65 -2z"/>
<path d="M720 1940 c8 -5 26 -9 40 -9 23 0 23 1 5 9 -11 5 -29 9 -40 9 -17 1
-17 -1 -5 -9z"/>
<path d="M3680 1933 c0 -5 12 -36 26 -70 22 -52 30 -61 41 -51 8 6 10 14 5 17
-5 3 -22 30 -37 59 -26 49 -35 61 -35 45z"/>
<path d="M4040 1909 c-47 -28 -91 -71 -151 -145 -46 -57 -48 -64 -38 -92 l11
-31 111 90 c119 96 157 139 157 176 0 30 -41 31 -90 2z"/>
<path d="M3581 1899 c-30 -12 -23 -19 23 -23 43 -3 48 -7 69 -66 21 -56 34
-76 42 -68 4 4 0 17 -9 30 -9 12 -16 37 -16 54 0 57 -55 94 -109 73z"/>
<path d="M3630 1765 c0 -21 32 -85 41 -80 7 5 -3 65 -15 84 -10 16 -26 14 -26
-4z"/>
<path d="M385 1483 l-30 -25 27 4 c22 4 27 1 30 -23 4 -23 -1 -31 -29 -46 -18
-10 -33 -23 -33 -30 0 -7 -11 -13 -25 -13 -26 0 -62 -29 -83 -65 -6 -11 -14
-16 -18 -12 -5 4 -2 17 5 29 12 19 11 20 -13 16 -32 -6 -33 8 -3 40 21 24 21
25 2 19 -33 -12 46 51 83 65 17 7 32 15 32 20 0 9 -61 26 -77 21 -13 -5 -113
-165 -113 -182 0 -7 -10 -22 -22 -35 -34 -33 -118 -163 -118 -181 0 -22 45
-65 69 -65 12 0 32 16 47 38 43 57 42 57 63 38 19 -17 20 -17 42 5 21 21 24
21 108 10 l86 -12 32 35 c36 39 45 94 18 116 -17 14 -20 40 -5 40 5 0 17 12
27 26 15 24 15 27 0 35 -29 17 -61 73 -67 115 l-5 42 -30 -25z m-80 -208 c-19
-39 -30 -44 -40 -18 -4 11 1 23 12 33 11 8 23 24 28 35 7 18 9 18 12 3 2 -10
-3 -33 -12 -53z m-140 -15 c-4 -12 -9 -19 -12 -17 -3 3 -2 15 2 27 4 12 9 19
12 17 3 -3 2 -15 -2 -27z m72 -92 c-3 -7 -5 -2 -5 12 0 14 2 19 5 13 2 -7 2
-19 0 -25z"/>
<path d="M630 1500 c-18 -12 -2 -12 25 0 13 6 15 9 5 9 -8 0 -22 -4 -30 -9z"/>
<path d="M545 1390 c-3 -5 1 -10 9 -10 9 0 16 5 16 10 0 6 -4 10 -9 10 -6 0
-13 -4 -16 -10z"/>
<path d="M4133 1177 c-2 -4 -9 -5 -14 -2 -5 4 -9 0 -9 -7 0 -7 -30 -35 -65
-63 -36 -27 -65 -53 -65 -57 0 -20 24 -13 94 27 42 24 104 54 137 66 32 12 59
25 59 29 0 11 -131 17 -137 7z"/>
<path d="M4265 860 c-3 -5 1 -10 9 -10 9 0 16 5 16 10 0 6 -4 10 -9 10 -6 0
-13 -4 -16 -10z"/>
<path d="M4305 859 c-3 -4 26 -11 63 -17 63 -9 82 -8 70 3 -8 9 -129 22 -133
14z"/>
</g>
</svg>
